<?xml version="1.0" standalone="no"?>
<!DOCTYPE svg PUBLIC "-//W3C//DTD SVG 20010904//EN"
 "http://www.w3.org/TR/2001/REC-SVG-20010904/DTD/svg10.dtd">
<svg version="1.0" xmlns="http://www.w3.org/2000/svg"
 width="256.000000pt" height="256.000000pt" viewBox="0 0 256.000000 256.000000"
 preserveAspectRatio="xMidYMid meet">
<metadata>
Created by potrace 1.14, written by Peter Selinger 2001-2017
</metadata>
<g transform="translate(0.000000,256.000000) scale(0.100000,-0.100000)"
fill="#000000" stroke="none">
<path d="M1065 2551 c-11 -5 -23 -7 -27 -4 -5 2 -8 -1 -8 -6 0 -6 -8 -11 -18
-11 -10 0 -22 -3 -26 -7 -4 -5 -11 -8 -14 -8 -16 -1 -102 -49 -102 -57 0 -5
-4 -7 -8 -4 -5 3 -15 -4 -22 -15 -8 -10 -18 -19 -22 -19 -5 0 -25 -18 -47 -40
-21 -22 -37 -40 -34 -40 2 0 -5 -10 -17 -22 -11 -12 -20 -28 -20 -35 0 -7 -4
-13 -9 -13 -5 0 -12 -10 -16 -22 -4 -13 -9 -27 -11 -33 -11 -32 -22 -90 -18
-97 3 -4 0 -8 -5 -8 -12 0 -10 -27 2 -47 4 -6 3 -14 -2 -17 -5 -3 -8 -19 -7
-36 2 -35 8 -32 -69 -36 -33 -1 -76 -5 -95 -9 -19 -3 -41 -6 -47 -7 -7 -1 -13
-5 -13 -10 0 -4 -3 -7 -7 -6 -23 6 -153 -85 -153 -107 0 -4 -9 -19 -20 -35
-11 -15 -17 -30 -13 -34 3 -3 0 -6 -8 -6 -11 0 -11 -2 1 -10 8 -5 10 -10 4
-10 -6 0 -10 -18 -10 -42 1 -24 -3 -49 -9 -57 -8 -12 -7 -13 4 -6 10 6 12 4 5
-6 -8 -13 -12 -66 -17 -204 -1 -33 -6 -63 -12 -67 -6 -5 -6 -8 1 -8 8 0 10
-11 5 -32 -4 -18 -7 -59 -6 -90 1 -32 -2 -58 -6 -58 -4 0 -3 -16 1 -35 4 -19
5 -33 1 -30 -4 2 -7 -25 -6 -60 0 -36 -1 -65 -4 -65 -9 0 -6 -74 4 -89 5 -9 4
-12 -2 -8 -10 6 -15 -45 -15 -155 0 -25 -4 -36 -12 -31 -8 4 -8 3 0 -6 6 -7 8
-31 5 -59 -3 -26 -6 -77 -6 -114 0 -38 -2 -68 -5 -68 -3 0 -5 -19 -4 -42 1
-24 -2 -48 -7 -53 -4 -6 -4 -17 0 -24 5 -8 5 -26 1 -42 -5 -15 -5 -30 -2 -34
4 -4 7 -14 7 -24 0 -23 36 -101 47 -101 5 0 6 -4 3 -10 -3 -5 -2 -10 4 -10 6
0 20 -11 33 -24 13 -14 48 -37 78 -53 l55 -28 925 0 925 0 45 23 c51 25 133
96 123 105 -3 4 -1 7 6 7 10 0 30 36 35 65 1 6 4 15 7 20 3 6 4 48 2 95 -2 47
-5 114 -6 150 -1 36 -6 71 -10 78 -5 7 -3 12 4 12 8 0 8 4 -1 15 -9 11 -9 15
-1 15 7 0 9 5 4 13 -4 6 -9 41 -10 77 -1 36 -2 65 -3 65 -1 0 -2 27 -3 60 -1
33 -5 63 -10 66 -5 4 -5 15 1 26 6 10 7 24 3 31 -4 6 -7 41 -6 77 0 36 -2 65
-5 65 -3 0 -5 35 -5 78 0 42 -3 85 -8 95 -5 11 -3 17 5 17 8 0 9 3 3 8 -9 6
-12 45 -14 175 -1 19 -5 26 -13 21 -8 -5 -8 -3 -2 7 13 20 12 79 -1 79 -5 0
-3 5 5 10 8 5 11 10 5 10 -6 0 -11 34 -12 78 -1 65 -7 117 -13 117 -1 0 -3 9
-5 20 -2 11 -9 21 -14 23 -6 2 -11 9 -11 15 -1 15 -46 67 -58 67 -5 0 -17 9
-26 19 -10 11 -37 25 -62 32 -24 7 -44 16 -44 19 0 7 -15 8 -118 12 -78 3 -99
16 -81 50 7 13 6 18 -2 18 -8 0 -8 4 -1 13 7 8 6 23 -3 50 -8 22 -9 40 -3 43
5 3 2 16 -7 30 -8 13 -13 24 -10 24 6 0 -41 96 -56 114 -39 47 -49 60 -49 66
0 4 -11 13 -25 20 -13 7 -22 17 -19 22 3 4 -2 8 -10 8 -9 0 -16 5 -16 11 0 5
-4 8 -9 4 -6 -3 -13 0 -18 8 -10 15 -122 75 -149 80 -11 1 -26 7 -34 12 -18
12 -397 17 -425 6z m270 -152 c51 0 205 -60 205 -80 0 -5 5 -9 11 -9 15 0 99
-90 99 -107 0 -7 5 -13 11 -13 6 0 9 -6 6 -14 -3 -7 0 -22 8 -32 8 -12 12 -46
11 -94 l-1 -75 -421 0 -421 -1 3 66 c4 82 8 103 35 154 20 41 106 135 122 136
5 0 22 9 38 21 16 11 29 18 29 15 0 -3 16 2 35 10 19 7 51 17 72 20 21 3 39 7
41 8 1 2 23 1 50 -1 26 -2 56 -4 67 -4z"/>
</g>
</svg>
